<svg width="24" height="23" viewBox="0 0 24 23" fill="none" xmlns="http://www.w3.org/2000/svg">
<path d="M2.29785 19.5242H3.04479C3.04479 19.3261 3.12349 19.1361 3.26357 18.996C3.40365 18.8559 3.59363 18.7772 3.79173 18.7772V18.0303C3.39553 18.0303 3.01556 18.1877 2.7354 18.4678C2.45524 18.748 2.29785 19.128 2.29785 19.5242Z" fill="#452bc7"/>
<path d="M4.91114 15.4161C4.91058 15.7754 4.98526 16.1308 5.13036 16.4595L5.81419 16.1608C5.71084 15.9261 5.65766 15.6725 5.65808 15.4161C5.65867 14.921 5.8556 14.4464 6.20567 14.0963C6.55574 13.7462 7.03036 13.5493 7.52543 13.5487V12.8018C6.83232 12.8025 6.16782 13.0782 5.67772 13.5683C5.18761 14.0584 4.91193 14.7229 4.91114 15.4161Z" fill="#452bc7"/>
<path d="M23.2126 10.9342V9.44028C23.2126 9.35687 23.1846 9.27589 23.1331 9.21023C23.0817 9.14458 23.0098 9.09803 22.9288 9.07802L22.447 8.9585L22.7047 8.52901C22.7465 8.45741 22.7637 8.37405 22.7536 8.29174C22.7435 8.20943 22.7066 8.13272 22.6487 8.07338L21.5918 7.01646C21.5324 6.95852 21.4557 6.92166 21.3734 6.91154C21.2911 6.90142 21.2077 6.9186 21.1361 6.96044L20.7066 7.21813L20.5871 6.73635C20.5671 6.65539 20.5206 6.58345 20.4549 6.53201C20.3892 6.48056 20.3083 6.45258 20.2249 6.45252H18.731C18.6476 6.45258 18.5666 6.48056 18.5009 6.53201C18.4353 6.58345 18.3887 6.65539 18.3687 6.73635L18.2492 7.21813L17.8197 6.96044C17.7481 6.9186 17.6647 6.90142 17.5824 6.91154C17.5001 6.92166 17.4234 6.95852 17.3641 7.01646L16.3071 8.07338C16.2492 8.13272 16.2123 8.20943 16.2022 8.29174C16.1921 8.37405 16.2093 8.45741 16.2511 8.52901L16.4155 8.80165C16.0715 8.72977 15.7211 8.69348 15.3697 8.69334C15.2428 8.69334 15.1195 8.70081 14.9963 8.70828V1.97087H14.9066C14.3539 0.745885 11.1122 0.103516 7.90032 0.103516C4.37476 0.103516 0.804381 0.872865 0.804381 2.34434V13.5485C0.804381 14.4859 2.16381 15.0274 3.42241 15.3262C3.42241 15.3561 3.41868 15.3859 3.41868 15.4158C3.41814 15.7972 3.47094 16.1769 3.57553 16.5437C2.80287 16.5984 2.08165 16.9511 1.56399 17.5273C1.04634 18.1035 0.7727 18.8583 0.800796 19.6324C0.828892 20.4065 1.15652 21.1394 1.71459 21.6766C2.27266 22.2137 3.01755 22.5132 3.79215 22.5118H20.2249C21.0173 22.5118 21.7772 22.197 22.3375 21.6367C22.8978 21.0763 23.2126 20.3164 23.2126 19.524C23.2126 18.7316 22.8978 17.9716 22.3375 17.4113C21.7772 16.851 21.0173 16.5362 20.2249 16.5362H19.8962C20.3577 15.7424 20.6 14.8402 20.5983 13.9219C20.5983 13.8248 20.5909 13.7315 20.5871 13.6381L20.7066 13.1563L21.1361 13.414C21.2077 13.4559 21.2911 13.473 21.3734 13.4629C21.4557 13.4528 21.5324 13.4159 21.5918 13.358L22.6487 12.3011C22.7066 12.2417 22.7435 12.165 22.7536 12.0827C22.7637 12.0004 22.7465 11.917 22.7047 11.8454L22.447 11.4159L22.9288 11.2964C23.0098 11.2764 23.0817 11.2299 23.1331 11.1642C23.1846 11.0986 23.2126 11.0176 23.2126 10.9342ZM7.90032 0.850457C12.0085 0.850457 14.2493 1.83642 14.2493 2.34434C14.2493 2.85226 12.0085 3.83822 7.90032 3.83822C3.79215 3.83822 1.55132 2.85226 1.55132 2.34434C1.55132 1.83642 3.79215 0.850457 7.90032 0.850457ZM1.55132 3.39753C2.78004 4.17808 5.34578 4.58516 7.90032 4.58516C10.4549 4.58516 13.0206 4.17808 14.2493 3.39753V6.07905C14.2493 6.58697 12.0085 7.57293 7.90032 7.57293C3.79215 7.57293 1.55132 6.58697 1.55132 6.07905V3.39753ZM1.55132 7.13223C2.78004 7.91279 5.34578 8.31987 7.90032 8.31987C10.4549 8.31987 13.0206 7.91279 14.2493 7.13223V8.82032C12.9067 9.12007 11.7357 9.93562 10.9889 11.091C9.96613 11.2392 8.93379 11.3116 7.90032 11.3076C3.79215 11.3076 1.55132 10.3217 1.55132 9.81375V7.13223ZM10.5557 11.9052C10.4816 12.0809 10.4167 12.2604 10.3615 12.443C10.1783 12.2722 9.98089 12.1172 9.77141 11.9799C10.0403 11.9575 10.3017 11.9351 10.5557 11.9052ZM3.50457 14.5755C2.08165 14.2244 1.55132 13.78 1.55132 13.5485V10.8669C2.36922 11.3861 3.77347 11.7409 5.38313 11.9201C4.90607 12.2119 4.49346 12.5979 4.17048 13.0544C3.8475 13.511 3.62092 14.0285 3.50457 14.5755ZM20.2249 17.2832C20.8192 17.2832 21.3891 17.5193 21.8094 17.9395C22.2296 18.3597 22.4657 18.9297 22.4657 19.524C22.4657 20.1183 22.2296 20.6883 21.8094 21.1085C21.3891 21.5287 20.8192 21.7648 20.2249 21.7648H3.79215C3.19784 21.7648 2.62788 21.5287 2.20764 21.1085C1.78741 20.6883 1.55132 20.1183 1.55132 19.524C1.55132 18.9297 1.78741 18.3597 2.20764 17.9395C2.62788 17.5193 3.19784 17.2832 3.79215 17.2832H4.10586C4.16793 17.283 4.22901 17.2676 4.28372 17.2383C4.33842 17.209 4.38508 17.1667 4.41958 17.1151C4.45266 17.0627 4.47265 17.0031 4.47785 16.9414C4.48305 16.8796 4.47331 16.8175 4.44946 16.7603C4.26059 16.3373 4.16384 15.879 4.16562 15.4158C4.16579 14.7034 4.39232 14.0094 4.81251 13.4341C5.23271 12.8588 5.82483 12.4319 6.50343 12.215C7.18202 11.9981 7.91199 12.0024 8.58798 12.2273C9.26397 12.4522 9.85102 12.8861 10.2644 13.4663C10.3074 13.5273 10.3679 13.5738 10.4379 13.5998C10.5079 13.6258 10.5841 13.6301 10.6565 13.6119C10.7288 13.5941 10.7941 13.555 10.844 13.4998C10.8939 13.4446 10.9262 13.3757 10.9366 13.302C11.0884 12.2331 11.6199 11.2546 12.4339 10.5455C13.248 9.83633 14.2901 9.44401 15.3697 9.44028C15.4967 9.44028 15.62 9.44775 15.7432 9.45522V10.9342C15.7433 11.0176 15.7713 11.0986 15.8227 11.1642C15.8741 11.2299 15.9461 11.2764 16.027 11.2964L16.5088 11.4159L16.2511 11.8454C16.2093 11.917 16.1921 12.0004 16.2022 12.0827C16.2123 12.165 16.2492 12.2417 16.3071 12.3011L17.3641 13.358C17.4234 13.4159 17.5001 13.4528 17.5824 13.4629C17.6647 13.473 17.7481 13.4559 17.8197 13.414L18.2492 13.1563L18.3687 13.6381C18.3887 13.7191 18.4353 13.791 18.5009 13.8424C18.5666 13.8939 18.6476 13.9219 18.731 13.9219H19.8514C19.8543 14.9225 19.5172 15.8943 18.8953 16.6781C18.8517 16.7333 18.8246 16.7997 18.817 16.8696C18.8095 16.9395 18.8218 17.0102 18.8526 17.0734C18.8835 17.1366 18.9315 17.1898 18.9913 17.2269C19.051 17.2641 19.12 17.2835 19.1903 17.2832H20.2249ZM22.4657 10.6429L21.7785 10.8147C21.7217 10.8296 21.6691 10.8572 21.6245 10.8954C21.5799 10.9335 21.5444 10.9813 21.5208 11.035C21.4992 11.0893 21.4903 11.1478 21.4948 11.2061C21.4993 11.2644 21.5172 11.3208 21.5469 11.3711L21.9129 11.9761L21.2668 12.6223L20.6618 12.2563C20.6115 12.2265 20.5551 12.2086 20.4968 12.2041C20.4385 12.1996 20.38 12.2085 20.3257 12.2301C20.2719 12.2537 20.2242 12.2892 20.1861 12.3338C20.1479 12.3784 20.1203 12.431 20.1053 12.4878L19.9335 13.175H19.0223L18.8505 12.4878C18.8355 12.431 18.8079 12.3784 18.7698 12.3338C18.7316 12.2892 18.6839 12.2537 18.6301 12.2301C18.5758 12.2085 18.5173 12.1996 18.459 12.2041C18.4008 12.2086 18.3443 12.2265 18.294 12.2563L17.689 12.6223L17.0429 11.9761L17.4089 11.3711C17.4387 11.3208 17.4565 11.2644 17.461 11.2061C17.4656 11.1478 17.4567 11.0893 17.435 11.035C17.4114 10.9813 17.376 10.9335 17.3314 10.8954C17.2867 10.8572 17.2341 10.8296 17.1773 10.8147L16.4901 10.6429V9.73159L17.1773 9.55979C17.2341 9.54481 17.2867 9.51722 17.3314 9.47906C17.376 9.44091 17.4114 9.39319 17.435 9.33945C17.4567 9.28515 17.4656 9.22662 17.461 9.16834C17.4565 9.11007 17.4387 9.05362 17.4089 9.00332L17.0429 8.3983L17.689 7.75219L18.294 8.1182C18.3443 8.14797 18.4008 8.16582 18.459 8.17035C18.5173 8.17488 18.5758 8.16598 18.6301 8.14434C18.6839 8.12072 18.7316 8.08529 18.7698 8.04067C18.8079 7.99605 18.8355 7.9434 18.8505 7.88664L19.0223 7.19946H19.9335L20.1053 7.88664C20.1203 7.9434 20.1479 7.99605 20.1861 8.04067C20.2242 8.08529 20.2719 8.12072 20.3257 8.14434C20.38 8.16598 20.4385 8.17488 20.4968 8.17035C20.5551 8.16582 20.6115 8.14797 20.6618 8.1182L21.2668 7.75219L21.9129 8.3983L21.5469 9.00332C21.5172 9.05362 21.4993 9.11007 21.4948 9.16834C21.4903 9.22662 21.4992 9.28515 21.5208 9.33945C21.5444 9.39319 21.5799 9.44091 21.6245 9.47906C21.6691 9.51722 21.7217 9.54481 21.7785 9.55979L22.4657 9.73159V10.6429Z" fill="#452bc7"/>
<path d="M19.4783 8.69336C19.1828 8.69336 18.894 8.78097 18.6483 8.94512C18.4026 9.10927 18.2112 9.34259 18.0981 9.61556C17.985 9.88853 17.9554 10.1889 18.0131 10.4787C18.0707 10.7685 18.213 11.0347 18.4219 11.2436C18.6308 11.4525 18.897 11.5948 19.1868 11.6524C19.4766 11.7101 19.777 11.6805 20.0499 11.5674C20.3229 11.4543 20.5562 11.2629 20.7204 11.0172C20.8845 10.7715 20.9721 10.4827 20.9721 10.1872C20.9721 9.79104 20.8148 9.41107 20.5346 9.13091C20.2544 8.85075 19.8745 8.69336 19.4783 8.69336ZM19.4783 10.9342C19.3305 10.9342 19.1861 10.8904 19.0633 10.8083C18.9404 10.7262 18.8447 10.6096 18.7882 10.4731C18.7316 10.3366 18.7168 10.1864 18.7457 10.0415C18.7745 9.89663 18.8456 9.76354 18.9501 9.65907C19.0546 9.55461 19.1876 9.48347 19.3325 9.45465C19.4774 9.42583 19.6276 9.44062 19.7641 9.49716C19.9006 9.55369 20.0172 9.64943 20.0993 9.77226C20.1814 9.8951 20.2252 10.0395 20.2252 10.1872C20.2252 10.3853 20.1465 10.5753 20.0064 10.7154C19.8663 10.8555 19.6764 10.9342 19.4783 10.9342Z" fill="#452bc7"/>
</svg>
