<svg width="36" height="37" viewBox="0 0 36 37" fill="none" xmlns="http://www.w3.org/2000/svg">
<path d="M5.25001 6.87598C4.00737 6.87598 3 7.88335 3 9.12599V15.126H4.49998V9.12599C4.49998 8.71177 4.8358 8.37596 5.25001 8.37596H23.2501V6.87598H5.25001Z" fill="#452bc7"/>
<path d="M5.25001 29.3761C4.8358 29.3761 4.49998 29.0402 4.49998 28.626V21.126H3V28.626C3 29.8687 4.00737 30.876 5.25001 30.876H12.7501V29.3761H5.25001Z" fill="#452bc7"/>
<path d="M23.7802 31.3092L5.56561 13.0946C5.27276 12.8018 4.798 12.8018 4.50508 13.0946L0.219587 17.3802C-0.0731956 17.673 -0.0731956 18.1478 0.219587 18.4407L18.4342 36.6552C18.5748 36.7959 18.7656 36.8749 18.9644 36.8749C19.1633 36.8749 19.354 36.7958 19.4946 36.6552L23.7801 32.3697C24.073 32.0768 24.073 31.602 23.7802 31.3092ZM18.9644 35.0644L1.81034 17.9104L5.03538 14.6853L22.1894 31.8395L18.9644 35.0644Z" fill="#452bc7"/>
<path d="M33 29.376H21.75V30.876H30V34.626C30 35.0402 30.3358 35.376 30.75 35.376H33C34.6569 35.376 36.0001 34.0329 36.0001 32.3759C36.0001 30.7191 34.6569 29.376 33 29.376ZM33 33.876H31.5001V30.876H33C33.8285 30.876 34.5 31.5475 34.5 32.3759C34.5 33.2044 33.8285 33.876 33 33.876Z" fill="#452bc7"/>
<path d="M33 6.87598H29.25V8.37596H33C33.8284 8.37596 34.5 9.04752 34.5 9.87594V32.376H36V9.87594C36 8.21909 34.6568 6.87598 33 6.87598Z" fill="#452bc7"/>
<path d="M13.7189 22.0916L11.4688 24.3418L12.5294 25.4024L14.7796 23.1522L13.7189 22.0916Z" fill="#452bc7"/>
<path d="M10.7228 19.0936L8.47266 21.3438L9.53329 22.4044L11.7835 20.1542L10.7228 19.0936Z" fill="#452bc7"/>
<path d="M16.715 25.0984L14.4648 27.3486L15.5255 28.4093L17.7757 26.1591L16.715 25.0984Z" fill="#452bc7"/>
<path d="M19.7229 28.0984L17.4727 30.3486L18.5333 31.4093L20.7835 29.1591L19.7229 28.0984Z" fill="#452bc7"/>
<path d="M7.71894 16.0984L5.46875 18.3486L6.52939 19.4093L8.77958 17.1591L7.71894 16.0984Z" fill="#452bc7"/>
<path d="M32.3496 2.56381L31.313 1.52732C30.436 0.690111 29.0558 0.690111 28.1788 1.52732L16.7743 12.9318C16.4815 13.2247 16.4815 13.6994 16.7743 13.9924L19.8846 17.1027C20.0248 17.2438 20.2158 17.3229 20.4148 17.3224C20.6137 17.3223 20.8044 17.2433 20.945 17.1027L32.3496 5.69807C32.3499 5.69772 32.3503 5.69736 32.3506 5.69701C33.2156 4.83153 33.2151 3.42872 32.3496 2.56381ZM31.2898 4.63684L20.4148 15.5118L18.365 13.4621L29.2401 2.58778C29.5233 2.31715 29.9694 2.31715 30.2526 2.58778L31.2898 3.62356C31.2899 3.6237 31.29 3.62377 31.2902 3.62391C31.5697 3.90369 31.5696 4.3572 31.2898 4.63684Z" fill="#452bc7"/>
<path d="M20.1752 15.8638L16.9382 16.9446L18.019 13.7023L16.594 13.2275L15.0385 17.8933C15.013 17.9698 15 18.0499 15 18.1305C15.0001 18.5447 15.336 18.8804 15.7502 18.8803C15.8295 18.8806 15.9085 18.8684 15.9842 18.8443L20.6499 17.2887L20.1752 15.8638Z" fill="#452bc7"/>
<path d="M27.17 3.59561L26.1094 4.65625L29.2197 7.76661L30.2804 6.70598L27.17 3.59561Z" fill="#452bc7"/>
<path d="M27 17.376H15.75V18.876H27V17.376Z" fill="#452bc7"/>
<path d="M30 17.376H28.5V18.876H30V17.376Z" fill="#452bc7"/>
<path d="M33 17.376H31.5V18.876H33V17.376Z" fill="#452bc7"/>
</svg>
