<svg width="35" height="35" viewBox="0 0 35 35" fill="none" xmlns="http://www.w3.org/2000/svg">
<path d="M31.9238 0.0683594H3.07617C1.37997 0.0683594 0 1.44833 0 3.14453V31.8555C0 33.5517 1.37997 34.9316 3.07617 34.9316H31.9238C33.62 34.9316 35 33.5517 35 31.8555V3.14453C35 1.44833 33.62 0.0683594 31.9238 0.0683594ZM3.07617 2.11914H31.9238C32.4892 2.11914 32.9492 2.57913 32.9492 3.14453V8.27148H2.05078V3.14453C2.05078 2.57913 2.51077 2.11914 3.07617 2.11914ZM31.9238 32.8809H3.07617C2.51077 32.8809 2.05078 32.4209 2.05078 31.8555V10.3223H32.9492V31.8555C32.9492 32.4209 32.4892 32.8809 31.9238 32.8809Z" fill="#452bc7"/>
<path d="M20.9804 13.4816C20.4599 13.2585 19.857 13.4996 19.634 14.0201L13.4816 28.3756C13.2585 28.8961 13.4997 29.4989 14.0202 29.722C14.5409 29.9451 15.1436 29.7038 15.3666 29.1835L21.5189 14.828C21.742 14.3074 21.5009 13.7047 20.9804 13.4816Z" fill="#452bc7"/>
<path d="M12.1481 16.8585C11.7943 16.4163 11.1489 16.3446 10.7069 16.6984L5.57991 20.7999C5.06728 21.2099 5.06694 21.991 5.57991 22.4013L10.7069 26.5029C11.1491 26.8567 11.7945 26.7849 12.1481 26.3428C12.5018 25.9006 12.4302 25.2553 11.9879 24.9016L7.86188 21.6006L11.9879 18.2998C12.4302 17.946 12.5018 17.3008 12.1481 16.8585Z" fill="#452bc7"/>
<path d="M29.4179 20.8009L24.291 16.6994C23.8487 16.3456 23.2034 16.4173 22.8497 16.8595C22.496 17.3017 22.5676 17.947 23.0099 18.3007L27.1359 21.6016L23.0099 24.9025C22.5676 25.2563 22.496 25.9015 22.8497 26.3437C23.204 26.7864 23.8494 26.8572 24.291 26.5038L29.4179 22.4023C29.9305 21.9923 29.9309 21.2112 29.4179 20.8009Z" fill="#452bc7"/>
<path d="M5.19727 6.2207C5.76357 6.2207 6.22266 5.76162 6.22266 5.19531C6.22266 4.629 5.76357 4.16992 5.19727 4.16992C4.63096 4.16992 4.17188 4.629 4.17188 5.19531C4.17188 5.76162 4.63096 6.2207 5.19727 6.2207Z" fill="#452bc7"/>
<path d="M9.29883 6.2207C9.86513 6.2207 10.3242 5.76162 10.3242 5.19531C10.3242 4.629 9.86513 4.16992 9.29883 4.16992C8.73252 4.16992 8.27344 4.629 8.27344 5.19531C8.27344 5.76162 8.73252 6.2207 9.29883 6.2207Z" fill="#452bc7"/>
<path d="M13.4004 6.2207C13.9667 6.2207 14.4258 5.76162 14.4258 5.19531C14.4258 4.629 13.9667 4.16992 13.4004 4.16992C12.8341 4.16992 12.375 4.629 12.375 5.19531C12.375 5.76162 12.8341 6.2207 13.4004 6.2207Z" fill="#452bc7"/>
<path d="M23.6504 6.2207H29.8027C30.369 6.2207 30.8281 5.7616 30.8281 5.19531C30.8281 4.62902 30.369 4.16992 29.8027 4.16992H23.6504C23.0841 4.16992 22.625 4.62902 22.625 5.19531C22.625 5.7616 23.0841 6.2207 23.6504 6.2207Z" fill="#452bc7"/>
</svg>
